# xmcd
#
# Track frame offsets:
#	150
#	19472
#	34125
#	49932
#	65775
#	81804
#	95855
#	115235
#	128572
#	144590
#	160220
#	174222
#	192195
#	211609
#	228902
#
# Disc length: 3271 seconds
#
# Revision: 2
# Processed by: cddbd v1.5.1PL0 Copyright (c) Steve Scherf et al.
# Submitted via: audiograbber 1.83.01
#
DISCID=cd0cc50f
DTITLE=Sound Choice - 8186 [Country Hits Vol 35]
DYEAR=1994
DGENRE=Karaoke
TTITLE0=Brooks and Dunn - You're Gonna Miss Me When I'm Gone
TTITLE1=Alabama - She Ain't Your Ordinary Girl
TTITLE2=Jeff Carson - Not On Your Love
TTITLE3=Rick Trevino - Bobbie Ann Mason
TTITLE4=George Strait - Lead On
TTITLE5=Trisha Yearwood - I Wanna Go Too Far
TTITLE6=Rhett Akins - That Ain't My Truck
TTITLE7=Ty England - Should've Asked Her Faster
TTITLE8=Mark Chesnutt - Down In Tennessee
TTITLE9=Patty Loveless - Halfway Down
TTITLE10=Wade Hayes - Don't Stop
TTITLE11=Toby Keith - Big Ol' Truck
TTITLE12=Collin Raye - One Boy, One Girl
TTITLE13=John Berry - I Think About It All The Time
TTITLE14=Perfect Stranger - You Have The Right To Remain Silent
EXTD=
EXTT0=
EXTT1=
EXTT2=
EXTT3=
EXTT4=
EXTT5=
EXTT6=
EXTT7=
EXTT8=
EXTT9=
EXTT10=
EXTT11=
EXTT12=
EXTT13=
EXTT14=
PLAYORDER=
